General
Complete name : 4rc0 d1 Tr10nf0.avi
Format : DivX
Format/Info : Hack of AVI
File size : 1.02 GiB
Duration : 1h 48mn
Overall bit rate : 1 338 Kbps

Video
ID : 0
Format : MPEG-4 Visual
Format settings, BVOP : Yes
Format settings, QPel : No
Format settings, GMC : No warppoints
Format settings, Matrix : Default (H.263)
Muxing mode : Packed bitstream
Codec ID : DX50
Codec ID/Hint : DivX 5
Duration : 1h 48mn
Bit rate : 1 201 Kbps
Width : 624 pixels
Height : 480 pixels
Display aspect ratio : 1.300
Frame rate : 25.000 fps
Resolution : 8 bits
Colorimetry : 4:2:0
Scan type : Progressive
Bits/(Pixel*Frame) : 0.160
Stream size : 934 MiB (90%)
Title : Video
Writing library : DivX 6.2.5 (UTC 2006-06-16)

Audio
ID : 1
Format : MPEG Audio
Format version : Version 1
Format profile : Layer 3
Codec ID : 55
Codec ID/Hint : MP3
Duration : 1h 48mn
Bit rate mode : Constant
Bit rate : 128 Kbps
Channel(s) : 2 channels
Sampling rate : 48.0 KHz
Stream size : 99.5 MiB (10%)
Alignment : Split accross interleaves
Interleave, duration : 40 ms (1.00 video frame)
Interleave, preload duration : 50 ms
Title : Audio


Screenshots:
 
http://imageshack.us/photo/my-images/716/arcotrionfo3.png/ 
http://imageshack.us/photo/my-images/43/arcotrionfo2.png/ 
http://imageshack.us/photo/my-images/97/arcotrionfo5.png/ 
http://imageshack.us/photo/my-images/192/arcotrionfo4.png/ 
http://img832.imageshack.us/img832/3029/arcotrionfo1.png



Please seed!!! :)

